<svg id="visual" viewBox="0 0 900 300" width="900" height="300" xmlns="http://www.w3.org/2000/svg" xmlns:xlink="http://www.w3.org/1999/xlink" version="1.1"><path d="M0 146L129 167L257 141L386 216L514 185L643 156L771 220L900 180L900 0L771 0L643 0L514 0L386 0L257 0L129 0L0 0Z" fill="#282a36"></path><path d="M0 112L129 134L257 152L386 167L514 149L643 168L771 100L900 174L900 0L771 0L643 0L514 0L386 0L257 0L129 0L0 0Z" fill="#3b354d"></path><path d="M0 88L129 80L257 91L386 112L514 79L643 77L771 77L900 130L900 0L771 0L643 0L514 0L386 0L257 0L129 0L0 0Z" fill="#573d5f"></path><path d="M0 65L129 39L257 70L386 37L514 54L643 61L771 60L900 73L900 0L771 0L643 0L514 0L386 0L257 0L129 0L0 0Z" fill="#79436b"></path></svg>