<svg id="visual" viewBox="0 0 900 300" width="900" height="300" xmlns="http://www.w3.org/2000/svg" xmlns:xlink="http://www.w3.org/1999/xlink" version="1.1"><path d="M0 149L129 219L257 197L386 138L514 216L643 172L771 218L900 155L900 0L771 0L643 0L514 0L386 0L257 0L129 0L0 0Z" fill="#282a36"></path><path d="M0 113L129 117L257 113L386 147L514 123L643 113L771 139L900 100L900 0L771 0L643 0L514 0L386 0L257 0L129 0L0 0Z" fill="#3b354d"></path><path d="M0 123L129 114L257 111L386 66L514 87L643 121L771 116L900 66L900 0L771 0L643 0L514 0L386 0L257 0L129 0L0 0Z" fill="#573d5f"></path><path d="M0 66L129 48L257 56L386 61L514 36L643 67L771 72L900 47L900 0L771 0L643 0L514 0L386 0L257 0L129 0L0 0Z" fill="#79436b"></path></svg>